<?xml version="1.0" encoding="utf-8"?>
<!-- Generator: Adobe Illustrator 17.0.0, SVG Export Plug-In . SVG Version: 6.00 Build 0)  -->
<!DOCTYPE svg PUBLIC "-//W3C//DTD SVG 1.1//EN" "http://www.w3.org/Graphics/SVG/1.1/DTD/svg11.dtd">
<svg version="1.1" id="Layer_1" xmlns="http://www.w3.org/2000/svg" xmlns:xlink="http://www.w3.org/1999/xlink" x="0px" y="0px"
	 width="13px" height="14px" viewBox="0 0 13 14" enable-background="new 0 0 13 14" xml:space="preserve">
<path d="M12.694,2.294c0.203,1.398,0.306,2.786,0.306,4.164c0.009,1.342-0.093,2.786-0.306,4.334
	c-0.039,0.253-0.165,0.476-0.378,0.668c-0.214,0.191-0.648,0.288-0.899,0.288V13.1c0,0.244-0.093,0.455-0.277,0.633
	S10.737,14,10.485,14h-0.93c-0.252,0-0.47-0.089-0.654-0.267c-0.184-0.178-0.276-0.389-0.276-0.633v-1.028
	c-0.776,0.047-1.349,0.07-2.125,0.07s-1.349-0.023-2.125-0.07V13.1c0,0.244-0.092,0.455-0.276,0.633C3.915,13.911,3.697,14,3.445,14
	h-0.93c-0.252,0-0.47-0.089-0.654-0.267c-0.185-0.178-0.277-0.389-0.277-0.633v-1.239c-0.242-0.027-0.674-0.143-0.892-0.344
	s-0.346-0.424-0.385-0.668c-0.214-1.463-0.315-2.927-0.306-4.39c0-1.388,0.102-2.776,0.306-4.164
	C0.345,2.05,0.471,1.828,0.684,1.626S1.13,1.309,1.382,1.281C3.126,1.093,4.833,1,6.5,1s3.374,0.093,5.118,0.281
	c0.251,0.028,0.484,0.143,0.697,0.345C12.529,1.828,12.655,2.05,12.694,2.294z M2.368,10.132C2.612,10.377,2.906,10.5,3.25,10.5
	s0.638-0.123,0.882-0.368S4.5,9.594,4.5,9.25S4.377,8.612,4.132,8.368C3.888,8.123,3.594,8,3.25,8S2.612,8.123,2.368,8.368
	C2.123,8.612,2,8.906,2,9.25S2.123,9.888,2.368,10.132z M2.45,7h8.099c0.132,0,0.24-0.037,0.324-0.111
	C10.958,6.815,11,6.72,11,6.605V3.543c0-0.107-0.045-0.202-0.134-0.284c-0.089-0.082-0.199-0.127-0.33-0.136
	C9.261,3.041,7.915,3,6.5,3C5.075,3,3.725,3.041,2.45,3.123C2.328,3.132,2.223,3.175,2.134,3.253C2.044,3.331,2,3.428,2,3.543v3.062
	c0,0.115,0.042,0.21,0.126,0.284C2.211,6.963,2.319,7,2.45,7z M8.868,8.368C8.623,8.612,8.5,8.906,8.5,9.25s0.123,0.638,0.368,0.882
	S9.406,10.5,9.75,10.5s0.638-0.123,0.882-0.368S11,9.594,11,9.25s-0.123-0.638-0.368-0.882S10.094,8,9.75,8S9.112,8.123,8.868,8.368
	z"/>
</svg>
