<?xml version="1.0" encoding="utf-8"?>
<!-- Generator: Adobe Illustrator 17.0.0, SVG Export Plug-In . SVG Version: 6.00 Build 0)  -->
<!DOCTYPE svg PUBLIC "-//W3C//DTD SVG 1.1//EN" "http://www.w3.org/Graphics/SVG/1.1/DTD/svg11.dtd">
<svg version="1.1" id="Layer_1" xmlns="http://www.w3.org/2000/svg" xmlns:xlink="http://www.w3.org/1999/xlink" x="0px" y="0px"
	 width="14px" height="14px" viewBox="0 0 14 14" enable-background="new 0 0 14 14" xml:space="preserve">
<path fill="#FAAF19" d="M13.599,6.037L7.963,0.402C7.428-0.133,6.561-0.134,6.027,0.4L0.4,6.027
	c-0.534,0.534-0.533,1.401,0.001,1.935l5.636,5.636c0.053,0.053,0.111,0.1,0.17,0.143c0.489,0.352,1.155,0.343,1.633-0.027
	c0.046-0.035,0.09-0.073,0.132-0.114L13.6,7.973C14.134,7.439,14.133,6.572,13.599,6.037z M7,10.495c-2.185,0-3.961-1.784-4.001-4
	h0.87C3.955,8.2,5.335,9.555,7.03,9.555c1.695,0,3.075-1.356,3.162-3.06h0.81C10.961,8.711,9.186,10.495,7,10.495z"/>
</svg>
