<?xml version="1.0" encoding="utf-8"?>
<!-- Generator: Adobe Illustrator 17.0.0, SVG Export Plug-In . SVG Version: 6.00 Build 0)  -->
<!DOCTYPE svg PUBLIC "-//W3C//DTD SVG 1.1//EN" "http://www.w3.org/Graphics/SVG/1.1/DTD/svg11.dtd">
<svg version="1.1" id="Layer_1" xmlns="http://www.w3.org/2000/svg" xmlns:xlink="http://www.w3.org/1999/xlink" x="0px" y="0px"
	 width="12px" height="14px" viewBox="0 0 12 14" enable-background="new 0 0 12 14" xml:space="preserve">
<g>
	<path d="M11.693,12.577l-0.053,0.012c-0.036,0.009-0.09,0.02-0.161,0.032c-0.071,0.013-0.156,0.03-0.254,0.053
		c-0.098,0.021-0.221,0.042-0.368,0.065c-0.148,0.021-0.306,0.04-0.475,0.058C9.183,12.935,7.723,13,6,13
		c-2.617,0-4.514-0.139-5.693-0.423c-0.107-0.034-0.19-0.097-0.248-0.188s-0.073-0.192-0.047-0.304
		c0.125-0.569,0.344-1.039,0.656-1.409c0.312-0.371,0.732-0.715,1.259-1.034c0.161-0.095,0.477-0.236,0.951-0.426
		c0.286-0.112,0.509-0.203,0.67-0.272c0.161-0.07,0.333-0.173,0.516-0.31c0.183-0.138,0.301-0.281,0.355-0.427
		c0.107-0.302-0.022-0.728-0.388-1.28c-1.134-1.741-1.335-3.22-0.603-4.435c0.277-0.465,0.643-0.829,1.098-1.093
		C4.982,1.135,5.473,1.003,6,1.003c0.526,0,1.016,0.132,1.467,0.394c0.45,0.263,0.818,0.627,1.105,1.093
		c0.731,1.207,0.536,2.686-0.59,4.435c-0.357,0.543-0.491,0.97-0.402,1.28c0.072,0.215,0.236,0.397,0.496,0.544
		c0.258,0.146,0.611,0.302,1.058,0.466c0.455,0.19,0.768,0.331,0.938,0.426c0.527,0.319,0.947,0.664,1.259,1.034
		c0.313,0.371,0.532,0.841,0.657,1.409c0.026,0.112,0.01,0.213-0.047,0.304C11.882,12.48,11.799,12.543,11.693,12.577z"/>
</g>
</svg>
