<?xml version="1.0" encoding="utf-8"?>
<!-- Generator: Adobe Illustrator 17.0.0, SVG Export Plug-In . SVG Version: 6.00 Build 0)  -->
<!DOCTYPE svg PUBLIC "-//W3C//DTD SVG 1.1//EN" "http://www.w3.org/Graphics/SVG/1.1/DTD/svg11.dtd">
<svg version="1.1" id="Layer_1" xmlns="http://www.w3.org/2000/svg" xmlns:xlink="http://www.w3.org/1999/xlink" x="0px" y="0px"
	 width="15px" height="14px" viewBox="0 0 15 14" enable-background="new 0 0 15 14" xml:space="preserve">
<g>
	<path d="M8.407,13.948C7.563,13.983,6.595,14,5.501,14s-2.063-0.017-2.907-0.052c-0.844-0.033-1.409-0.068-1.696-0.102
		c-0.287-0.033-0.451-0.056-0.492-0.068c-0.136-0.011-0.245-0.085-0.328-0.22c-0.073-0.113-0.094-0.25-0.062-0.407
		c0.219-1.122,0.828-2.016,1.828-2.685c0.126-0.078,0.402-0.215,0.829-0.407C2.932,9.945,3.12,9.86,3.235,9.803
		C3.349,9.747,3.484,9.658,3.641,9.54c0.156-0.119,0.25-0.24,0.282-0.365c0.072-0.249-0.042-0.623-0.344-1.122
		c-1.021-1.733-1.198-3.2-0.531-4.4c0.26-0.465,0.607-0.827,1.039-1.088c0.432-0.26,0.903-0.39,1.415-0.39
		c0.52,0,0.998,0.13,1.43,0.39C7.363,2.826,7.71,3.188,7.97,3.653c0.667,1.201,0.49,2.667-0.531,4.4
		C7.136,8.551,7.021,8.926,7.095,9.174C7.126,9.299,7.22,9.421,7.377,9.54c0.156,0.119,0.291,0.208,0.405,0.263
		c0.115,0.057,0.303,0.142,0.563,0.255c0.427,0.192,0.703,0.329,0.829,0.407c0.989,0.669,1.604,1.564,1.844,2.685
		c0.032,0.146,0.005,0.283-0.078,0.407c-0.083,0.135-0.193,0.21-0.328,0.22c-0.042,0.012-0.209,0.035-0.499,0.068
		C9.82,13.881,9.252,13.915,8.407,13.948z M14.987,10.975c0.032,0.137,0.011,0.272-0.062,0.407
		c-0.083,0.125-0.193,0.199-0.328,0.222c-0.145,0.078-1.041,0.142-2.687,0.187c-0.448-1.031-1.146-1.864-2.095-2.498
		c-0.271-0.17-0.609-0.334-1.016-0.492C8.694,8.744,8.611,8.705,8.549,8.681c0.49-0.838,0.817-1.648,0.984-2.429
		C9.699,5.471,9.744,4.82,9.666,4.299s-0.237-0.992-0.477-1.41C8.751,2.084,8.2,1.518,7.533,1.189
		C7.824,0.781,8.113,0.481,8.4,0.289S9.048,0,9.486,0c0.52,0,0.994,0.13,1.421,0.391c0.427,0.26,0.772,0.623,1.032,1.087
		c0.678,1.212,0.505,2.679-0.515,4.4C11.112,6.365,10.992,6.74,11.064,7c0.032,0.125,0.126,0.246,0.282,0.365
		c0.156,0.119,0.292,0.207,0.407,0.263c0.114,0.057,0.302,0.142,0.562,0.255c0.407,0.181,0.683,0.317,0.829,0.408
		C14.153,8.959,14.768,9.853,14.987,10.975z"/>
</g>
</svg>
